# xmcd
#
# Track frame offsets:
#	150
#	7807
#	21670
#	30555
#	51987
#	62950
#	81735
#	100770
#	118430
#	128990
#	148145
#	164305
#	182107
#	194440
#	210502
#	221972
#
# Disc length: 3135 seconds
#
# Revision: 1
# Processed by: cddbd v1.5.1PL0 Copyright (c) Steve Scherf et al.
# Submitted via: audiograbber 1.83.01
#
DISCID=fc0c3d10
DTITLE=Brina Nico and Fahrer Thomas - Let's Boggie!
DYEAR=1999
DGENRE=Boogie
TTITLE0=Denmark Googie
TTITLE1=Hello Everybody ... Let's Boogie!
TTITLE2=It's Rockin' Time
TTITLE3=Happy One
TTITLE4=Baby Rattle Boogie
TTITLE5=Swanee River Boogie
TTITLE6=Für Elise
TTITLE7=Strollin' Ivories
TTITLE8=Free Boogie
TTITLE9=Lille Blues
TTITLE10=Halloween Boogie
TTITLE11=On the Road
TTITLE12=Sixth Avenue Express
TTITLE13=Mc Gills Shuffle Blues
TTITLE14=Swiss Boogie Medley
TTITLE15=Highspeed Boogie Flight
EXTD=
EXTT0=
EXTT1=
EXTT2=
EXTT3=
EXTT4=
EXTT5=
EXTT6=
EXTT7=
EXTT8=
EXTT9=
EXTT10=
EXTT11=
EXTT12=
EXTT13=
EXTT14=
EXTT15=
PLAYORDER=
